<?xml version='1.0' encoding='UTF-8'?>
<svg width="102mm" height="102mm" version="1.1" viewBox="0 0 102 102" fill_color="#0f172a" back_color="#ffffff" xmlns="http://www.w3.org/2000/svg"><path d="M6,6H8V8H6zM8,6H10V8H8zM10,6H12V8H10zM12,6H14V8H12zM14,6H16V8H14zM16,6H18V8H16zM18,6H20V8H18zM22,6H24V8H22zM26,6H28V8H26zM28,6H30V8H28zM32,6H34V8H32zM36,6H38V8H36zM38,6H40V8H38zM44,6H46V8H44zM46,6H48V8H46zM56,6H58V8H56zM64,6H66V8H64zM66,6H68V8H66zM68,6H70V8H68zM70,6H72V8H70zM78,6H80V8H78zM82,6H84V8H82zM84,6H86V8H84zM86,6H88V8H86zM88,6H90V8H88zM90,6H92V8H90zM92,6H94V8H92zM94,6H96V8H94zM6,8H8V10H6zM18,8H20V10H18zM22,8H24V10H22zM24,8H26V10H24zM26,8H28V10H26zM32,8H34V10H32zM34,8H36V10H34zM38,8H40V10H38zM40,8H42V10H40zM46,8H48V10H46zM48,8H50V10H48zM50,8H52V10H50zM52,8H54V10H52zM56,8H58V10H56zM60,8H62V10H60zM64,8H66V10H64zM66,8H68V10H66zM68,8H70V10H68zM76,8H78V10H76zM82,8H84V10H82zM94,8H96V10H94zM6,10H8V12H6zM10,10H12V12H10zM12,10H14V12H12zM14,10H16V12H14zM18,10H20V12H18zM24,10H26V12H24zM28,10H30V12H28zM30,10H32V12H30zM32,10H34V12H32zM38,10H40V12H38zM40,10H42V12H40zM44,10H46V12H44zM48,10H50V12H48zM50,10H52V12H50zM52,10H54V12H52zM56,10H58V12H56zM60,10H62V12H60zM64,10H66V12H64zM66,10H68V12H66zM76,10H78V12H76zM82,10H84V12H82zM86,10H88V12H86zM88,10H90V12H88zM90,10H92V12H90zM94,10H96V12H94zM6,12H8V14H6zM10,12H12V14H10zM12,12H14V14H12zM14,12H16V14H14zM18,12H20V14H18zM22,12H24V14H22zM24,12H26V14H24zM26,12H28V14H26zM30,12H32V14H30zM48,12H50V14H48zM50,12H52V14H50zM56,12H58V14H56zM62,12H64V14H62zM64,12H66V14H64zM66,12H68V14H66zM70,12H72V14H70zM76,12H78V14H76zM78,12H80V14H78zM82,12H84V14H82zM86,12H88V14H86zM88,12H90V14H88zM90,12H92V14H90zM94,12H96V14H94zM6,14H8V16H6zM10,14H12V16H10zM12,14H14V16H12zM14,14H16V16H14zM18,14H20V16H18zM22,14H24V16H22zM24,14H26V16H24zM26,14H28V16H26zM28,14H30V16H28zM34,14H36V16H34zM38,14H40V16H38zM40,14H42V16H40zM42,14H44V16H42zM46,14H48V16H46zM48,14H50V16H48zM50,14H52V16H50zM52,14H54V16H52zM54,14H56V16H54zM60,14H62V16H60zM62,14H64V16H62zM64,14H66V16H64zM66,14H68V16H66zM68,14H70V16H68zM72,14H74V16H72zM74,14H76V16H74zM76,14H78V16H76zM78,14H80V16H78zM82,14H84V16H82zM86,14H88V16H86zM88,14H90V16H88zM90,14H92V16H90zM94,14H96V16H94zM6,16H8V18H6zM18,16H20V18H18zM22,16H24V18H22zM24,16H26V18H24zM32,16H34V18H32zM34,16H36V18H34zM40,16H42V18H40zM46,16H48V18H46zM54,16H56V18H54zM60,16H62V18H60zM66,16H68V18H66zM72,16H74V18H72zM82,16H84V18H82zM94,16H96V18H94zM6,18H8V20H6zM8,18H10V20H8zM10,18H12V20H10zM12,18H14V20H12zM14,18H16V20H14zM16,18H18V20H16zM18,18H20V20H18zM22,18H24V20H22zM26,18H28V20H26zM30,18H32V20H30zM34,18H36V20H34zM38,18H40V20H38zM42,18H44V20H42zM46,18H48V20H46zM50,18H52V20H50zM54,18H56V20H54zM58,18H60V20H58zM62,18H64V20H62zM66,18H68V20H66zM70,18H72V20H70zM74,18H76V20H74zM78,18H80V20H78zM82,18H84V20H82zM84,18H86V20H84zM86,18H88V20H86zM88,18H90V20H88zM90,18H92V20H90zM92,18H94V20H92zM94,18H96V20H94zM24,20H26V22H24zM28,20H30V22H28zM32,20H34V22H32zM34,20H36V22H34zM36,20H38V22H36zM38,20H40V22H38zM42,20H44V22H42zM44,20H46V22H44zM46,20H48V22H46zM54,20H56V22H54zM60,20H62V22H60zM62,20H64V22H62zM70,20H72V22H70zM78,20H80V22H78zM12,22H14V24H12zM18,22H20V24H18zM24,22H26V24H24zM28,22H30V24H28zM32,22H34V24H32zM36,22H38V24H36zM38,22H40V24H38zM42,22H44V24H42zM46,22H48V24H46zM48,22H50V24H48zM50,22H52V24H50zM52,22H54V24H52zM54,22H56V24H54zM56,22H58V24H56zM60,22H62V24H60zM64,22H66V24H64zM68,22H70V24H68zM72,22H74V24H72zM84,22H86V24H84zM86,22H88V24H86zM88,22H90V24H88zM92,22H94V24H92zM94,22H96V24H94zM10,24H12V26H10zM12,24H14V26H12zM20,24H22V26H20zM22,24H24V26H22zM34,24H36V26H34zM38,24H40V26H38zM40,24H42V26H40zM42,24H44V26H42zM56,24H58V26H56zM58,24H60V26H58zM60,24H62V26H60zM62,24H64V26H62zM70,24H72V26H70zM72,24H74V26H72zM84,24H86V26H84zM86,24H88V26H86zM92,24H94V26H92zM94,24H96V26H94zM6,26H8V28H6zM10,26H12V28H10zM12,26H14V28H12zM18,26H20V28H18zM22,26H24V28H22zM36,26H38V28H36zM42,26H44V28H42zM44,26H46V28H44zM54,26H56V28H54zM56,26H58V28H56zM60,26H62V28H60zM74,26H76V28H74zM78,26H80V28H78zM80,26H82V28H80zM84,26H86V28H84zM86,26H88V28H86zM88,26H90V28H88zM90,26H92V28H90zM94,26H96V28H94zM10,28H12V30H10zM12,28H14V30H12zM14,28H16V30H14zM20,28H22V30H20zM24,28H26V30H24zM26,28H28V30H26zM28,28H30V30H28zM30,28H32V30H30zM32,28H34V30H32zM34,28H36V30H34zM36,28H38V30H36zM46,28H48V30H46zM48,28H50V30H48zM52,28H54V30H52zM54,28H56V30H54zM62,28H64V30H62zM64,28H66V30H64zM66,28H68V30H66zM72,28H74V30H72zM80,28H82V30H80zM82,28H84V30H82zM84,28H86V30H84zM86,28H88V30H86zM88,28H90V30H88zM92,28H94V30H92zM8,30H10V32H8zM14,30H16V32H14zM16,30H18V32H16zM18,30H20V32H18zM20,30H22V32H20zM34,30H36V32H34zM42,30H44V32H42zM44,30H46V32H44zM54,30H56V32H54zM58,30H60V32H58zM68,30H70V32H68zM70,30H72V32H70zM72,30H74V32H72zM74,30H76V32H74zM82,30H84V32H82zM86,30H88V32H86zM94,30H96V32H94zM10,32H12V34H10zM14,32H16V34H14zM16,32H18V34H16zM20,32H22V34H20zM22,32H24V34H22zM26,32H28V34H26zM30,32H32V34H30zM34,32H36V34H34zM36,32H38V34H36zM40,32H42V34H40zM42,32H44V34H42zM48,32H50V34H48zM50,32H52V34H50zM54,32H56V34H54zM56,32H58V34H56zM58,32H60V34H58zM70,32H72V34H70zM72,32H74V34H72zM74,32H76V34H74zM80,32H82V34H80zM84,32H86V34H84zM86,32H88V34H86zM88,32H90V34H88zM90,32H92V34H90zM92,32H94V34H92zM94,32H96V34H94zM6,34H8V36H6zM10,34H12V36H10zM16,34H18V36H16zM18,34H20V36H18zM20,34H22V36H20zM22,34H24V36H22zM24,34H26V36H24zM26,34H28V36H26zM30,34H32V36H30zM36,34H38V36H36zM38,34H40V36H38zM46,34H48V36H46zM48,34H50V36H48zM50,34H52V36H50zM52,34H54V36H52zM56,34H58V36H56zM58,34H60V36H58zM64,34H66V36H64zM68,34H70V36H68zM70,34H72V36H70zM76,34H78V36H76zM80,34H82V36H80zM82,34H84V36H82zM84,34H86V36H84zM88,34H90V36H88zM90,34H92V36H90zM92,34H94V36H92zM6,36H8V38H6zM8,36H10V38H8zM10,36H12V38H10zM16,36H18V38H16zM22,36H24V38H22zM24,36H26V38H24zM26,36H28V38H26zM28,36H30V38H28zM30,36H32V38H30zM34,36H36V38H34zM40,36H42V38H40zM42,36H44V38H42zM48,36H50V38H48zM56,36H58V38H56zM62,36H64V38H62zM64,36H66V38H64zM70,36H72V38H70zM76,36H78V38H76zM84,36H86V38H84zM86,36H88V38H86zM8,38H10V40H8zM12,38H14V40H12zM18,38H20V40H18zM20,38H22V40H20zM22,38H24V40H22zM26,38H28V40H26zM28,38H30V40H28zM30,38H32V40H30zM32,38H34V40H32zM34,38H36V40H34zM38,38H40V40H38zM40,38H42V40H40zM44,38H46V40H44zM46,38H48V40H46zM50,38H52V40H50zM52,38H54V40H52zM62,38H64V40H62zM64,38H66V40H64zM66,38H68V40H66zM70,38H72V40H70zM72,38H74V40H72zM74,38H76V40H74zM82,38H84V40H82zM84,38H86V40H84zM88,38H90V40H88zM94,38H96V40H94zM6,40H8V42H6zM12,40H14V42H12zM20,40H22V42H20zM30,40H32V42H30zM34,40H36V42H34zM36,40H38V42H36zM38,40H40V42H38zM40,40H42V42H40zM44,40H46V42H44zM50,40H52V42H50zM56,40H58V42H56zM60,40H62V42H60zM70,40H72V42H70zM72,40H74V42H72zM76,40H78V42H76zM82,40H84V42H82zM84,40H86V42H84zM86,40H88V42H86zM88,40H90V42H88zM6,42H8V44H6zM8,42H10V44H8zM10,42H12V44H10zM14,42H16V44H14zM18,42H20V44H18zM20,42H22V44H20zM22,42H24V44H22zM24,42H26V44H24zM26,42H28V44H26zM36,42H38V44H36zM42,42H44V44H42zM44,42H46V44H44zM46,42H48V44H46zM52,42H54V44H52zM56,42H58V44H56zM62,42H64V44H62zM64,42H66V44H64zM66,42H68V44H66zM70,42H72V44H70zM72,42H74V44H72zM76,42H78V44H76zM78,42H80V44H78zM84,42H86V44H84zM90,42H92V44H90zM92,42H94V44H92zM94,42H96V44H94zM8,44H10V46H8zM10,44H12V46H10zM16,44H18V46H16zM20,44H22V46H20zM28,44H30V46H28zM32,44H34V46H32zM34,44H36V46H34zM36,44H38V46H36zM38,44H40V46H38zM44,44H46V46H44zM46,44H48V46H46zM48,44H50V46H48zM52,44H54V46H52zM56,44H58V46H56zM60,44H62V46H60zM66,44H68V46H66zM68,44H70V46H68zM70,44H72V46H70zM72,44H74V46H72zM74,44H76V46H74zM76,44H78V46H76zM78,44H80V46H78zM80,44H82V46H80zM84,44H86V46H84zM88,44H90V46H88zM94,44H96V46H94zM6,46H8V48H6zM8,46H10V48H8zM14,46H16V48H14zM16,46H18V48H16zM18,46H20V48H18zM20,46H22V48H20zM22,46H24V48H22zM26,46H28V48H26zM30,46H32V48H30zM34,46H36V48H34zM38,46H40V48H38zM42,46H44V48H42zM44,46H46V48H44zM46,46H48V48H46zM48,46H50V48H48zM50,46H52V48H50zM52,46H54V48H52zM54,46H56V48H54zM56,46H58V48H56zM62,46H64V48H62zM64,46H66V48H64zM68,46H70V48H68zM74,46H76V48H74zM76,46H78V48H76zM78,46H80V48H78zM80,46H82V48H80zM82,46H84V48H82zM84,46H86V48H84zM86,46H88V48H86zM88,46H90V48H88zM92,46H94V48H92zM94,46H96V48H94zM8,48H10V50H8zM10,48H12V50H10zM14,48H16V50H14zM22,48H24V50H22zM24,48H26V50H24zM28,48H30V50H28zM30,48H32V50H30zM32,48H34V50H32zM36,48H38V50H36zM38,48H40V50H38zM44,48H46V50H44zM46,48H48V50H46zM54,48H56V50H54zM56,48H58V50H56zM58,48H60V50H58zM60,48H62V50H60zM66,48H68V50H66zM68,48H70V50H68zM72,48H74V50H72zM78,48H80V50H78zM86,48H88V50H86zM92,48H94V50H92zM94,48H96V50H94zM6,50H8V52H6zM12,50H14V52H12zM14,50H16V52H14zM18,50H20V52H18zM22,50H24V52H22zM24,50H26V52H24zM26,50H28V52H26zM30,50H32V52H30zM32,50H34V52H32zM34,50H36V52H34zM38,50H40V52H38zM40,50H42V52H40zM46,50H48V52H46zM50,50H52V52H50zM54,50H56V52H54zM56,50H58V52H56zM58,50H60V52H58zM60,50H62V52H60zM62,50H64V52H62zM66,50H68V52H66zM74,50H76V52H74zM78,50H80V52H78zM82,50H84V52H82zM86,50H88V52H86zM90,50H92V52H90zM94,50H96V52H94zM6,52H8V54H6zM8,52H10V54H8zM10,52H12V54H10zM14,52H16V54H14zM22,52H24V54H22zM24,52H26V54H24zM26,52H28V54H26zM38,52H40V54H38zM40,52H42V54H40zM46,52H48V54H46zM54,52H56V54H54zM58,52H60V54H58zM60,52H62V54H60zM64,52H66V54H64zM70,52H72V54H70zM74,52H76V54H74zM78,52H80V54H78zM86,52H88V54H86zM88,52H90V54H88zM10,54H12V56H10zM12,54H14V56H12zM14,54H16V56H14zM16,54H18V56H16zM18,54H20V56H18zM20,54H22V56H20zM22,54H24V56H22zM26,54H28V56H26zM36,54H38V56H36zM42,54H44V56H42zM46,54H48V56H46zM48,54H50V56H48zM50,54H52V56H50zM52,54H54V56H52zM54,54H56V56H54zM60,54H62V56H60zM62,54H64V56H62zM64,54H66V56H64zM70,54H72V56H70zM74,54H76V56H74zM78,54H80V56H78zM80,54H82V56H80zM82,54H84V56H82zM84,54H86V56H84zM86,54H88V56H86zM10,56H12V58H10zM12,56H14V58H12zM16,56H18V58H16zM20,56H22V58H20zM24,56H26V58H24zM26,56H28V58H26zM28,56H30V58H28zM34,56H36V58H34zM38,56H40V58H38zM40,56H42V58H40zM42,56H44V58H42zM46,56H48V58H46zM52,56H54V58H52zM54,56H56V58H54zM58,56H60V58H58zM62,56H64V58H62zM64,56H66V58H64zM68,56H70V58H68zM72,56H74V58H72zM74,56H76V58H74zM80,56H82V58H80zM82,56H84V58H82zM86,56H88V58H86zM88,56H90V58H88zM94,56H96V58H94zM8,58H10V60H8zM14,58H16V60H14zM16,58H18V60H16zM18,58H20V60H18zM20,58H22V60H20zM26,58H28V60H26zM28,58H30V60H28zM38,58H40V60H38zM44,58H46V60H44zM48,58H50V60H48zM52,58H54V60H52zM58,58H60V60H58zM60,58H62V60H60zM64,58H66V60H64zM66,58H68V60H66zM74,58H76V60H74zM78,58H80V60H78zM84,58H86V60H84zM86,58H88V60H86zM92,58H94V60H92zM8,60H10V62H8zM12,60H14V62H12zM16,60H18V62H16zM24,60H26V62H24zM26,60H28V62H26zM28,60H30V62H28zM30,60H32V62H30zM36,60H38V62H36zM38,60H40V62H38zM40,60H42V62H40zM42,60H44V62H42zM48,60H50V62H48zM54,60H56V62H54zM64,60H66V62H64zM66,60H68V62H66zM68,60H70V62H68zM70,60H72V62H70zM74,60H76V62H74zM78,60H80V62H78zM80,60H82V62H80zM82,60H84V62H82zM86,60H88V62H86zM92,60H94V62H92zM94,60H96V62H94zM6,62H8V64H6zM10,62H12V64H10zM12,62H14V64H12zM16,62H18V64H16zM18,62H20V64H18zM20,62H22V64H20zM22,62H24V64H22zM32,62H34V64H32zM34,62H36V64H34zM36,62H38V64H36zM40,62H42V64H40zM48,62H50V64H48zM50,62H52V64H50zM56,62H58V64H56zM62,62H64V64H62zM64,62H66V64H64zM70,62H72V64H70zM72,62H74V64H72zM74,62H76V64H74zM78,62H80V64H78zM84,62H86V64H84zM86,62H88V64H86zM6,64H8V66H6zM8,64H10V66H8zM14,64H16V66H14zM16,64H18V66H16zM24,64H26V66H24zM34,64H36V66H34zM36,64H38V66H36zM40,64H42V66H40zM42,64H44V66H42zM44,64H46V66H44zM48,64H50V66H48zM52,64H54V66H52zM54,64H56V66H54zM58,64H60V66H58zM62,64H64V66H62zM64,64H66V66H64zM66,64H68V66H66zM78,64H80V66H78zM80,64H82V66H80zM6,66H8V68H6zM8,66H10V68H8zM10,66H12V68H10zM16,66H18V68H16zM18,66H20V68H18zM20,66H22V68H20zM22,66H24V68H22zM30,66H32V68H30zM32,66H34V68H32zM36,66H38V68H36zM38,66H40V68H38zM40,66H42V68H40zM42,66H44V68H42zM44,66H46V68H44zM46,66H48V68H46zM48,66H50V68H48zM50,66H52V68H50zM52,66H54V68H52zM58,66H60V68H58zM60,66H62V68H60zM70,66H72V68H70zM80,66H82V68H80zM82,66H84V68H82zM86,66H88V68H86zM88,66H90V68H88zM92,66H94V68H92zM94,66H96V68H94zM6,68H8V70H6zM8,68H10V70H8zM10,68H12V70H10zM14,68H16V70H14zM24,68H26V70H24zM30,68H32V70H30zM34,68H36V70H34zM36,68H38V70H36zM38,68H40V70H38zM42,68H44V70H42zM44,68H46V70H44zM46,68H48V70H46zM48,68H50V70H48zM54,68H56V70H54zM58,68H60V70H58zM62,68H64V70H62zM64,68H66V70H64zM66,68H68V70H66zM70,68H72V70H70zM78,68H80V70H78zM82,68H84V70H82zM86,68H88V70H86zM92,68H94V70H92zM6,70H8V72H6zM8,70H10V72H8zM12,70H14V72H12zM16,70H18V72H16zM18,70H20V72H18zM20,70H22V72H20zM22,70H24V72H22zM24,70H26V72H24zM26,70H28V72H26zM28,70H30V72H28zM32,70H34V72H32zM34,70H36V72H34zM38,70H40V72H38zM42,70H44V72H42zM44,70H46V72H44zM46,70H48V72H46zM54,70H56V72H54zM62,70H64V72H62zM66,70H68V72H66zM72,70H74V72H72zM74,70H76V72H74zM76,70H78V72H76zM82,70H84V72H82zM92,70H94V72H92zM10,72H12V74H10zM12,72H14V74H12zM22,72H24V74H22zM26,72H28V74H26zM30,72H32V74H30zM32,72H34V74H32zM34,72H36V74H34zM36,72H38V74H36zM38,72H40V74H38zM40,72H42V74H40zM42,72H44V74H42zM44,72H46V74H44zM52,72H54V74H52zM54,72H56V74H54zM56,72H58V74H56zM60,72H62V74H60zM62,72H64V74H62zM64,72H66V74H64zM66,72H68V74H66zM76,72H78V74H76zM80,72H82V74H80zM84,72H86V74H84zM92,72H94V74H92zM94,72H96V74H94zM14,74H16V76H14zM18,74H20V76H18zM22,74H24V76H22zM24,74H26V76H24zM26,74H28V76H26zM34,74H36V76H34zM36,74H38V76H36zM38,74H40V76H38zM42,74H44V76H42zM44,74H46V76H44zM46,74H48V76H46zM48,74H50V76H48zM50,74H52V76H50zM56,74H58V76H56zM60,74H62V76H60zM62,74H64V76H62zM68,74H70V76H68zM70,74H72V76H70zM74,74H76V76H74zM78,74H80V76H78zM82,74H84V76H82zM90,74H92V76H90zM94,74H96V76H94zM8,76H10V78H8zM10,76H12V78H10zM12,76H14V78H12zM14,76H16V78H14zM22,76H24V78H22zM26,76H28V78H26zM34,76H36V78H34zM38,76H40V78H38zM42,76H44V78H42zM50,76H52V78H50zM52,76H54V78H52zM56,76H58V78H56zM58,76H60V78H58zM68,76H70V78H68zM72,76H74V78H72zM76,76H78V78H76zM78,76H80V78H78zM88,76H90V78H88zM6,78H8V80H6zM12,78H14V80H12zM14,78H16V80H14zM18,78H20V80H18zM20,78H22V80H20zM24,78H26V80H24zM28,78H30V80H28zM30,78H32V80H30zM40,78H42V80H40zM44,78H46V80H44zM46,78H48V80H46zM48,78H50V80H48zM50,78H52V80H50zM52,78H54V80H52zM54,78H56V80H54zM56,78H58V80H56zM58,78H60V80H58zM66,78H68V80H66zM68,78H70V80H68zM70,78H72V80H70zM72,78H74V80H72zM74,78H76V80H74zM78,78H80V80H78zM80,78H82V80H80zM82,78H84V80H82zM84,78H86V80H84zM86,78H88V80H86zM88,78H90V80H88zM22,80H24V82H22zM24,80H26V82H24zM26,80H28V82H26zM28,80H30V82H28zM30,80H32V82H30zM32,80H34V82H32zM34,80H36V82H34zM36,80H38V82H36zM38,80H40V82H38zM44,80H46V82H44zM46,80H48V82H46zM54,80H56V82H54zM56,80H58V82H56zM62,80H64V82H62zM64,80H66V82H64zM68,80H70V82H68zM72,80H74V82H72zM74,80H76V82H74zM78,80H80V82H78zM86,80H88V82H86zM90,80H92V82H90zM94,80H96V82H94zM6,82H8V84H6zM8,82H10V84H8zM10,82H12V84H10zM12,82H14V84H12zM14,82H16V84H14zM16,82H18V84H16zM18,82H20V84H18zM24,82H26V84H24zM26,82H28V84H26zM32,82H34V84H32zM34,82H36V84H34zM38,82H40V84H38zM44,82H46V84H44zM46,82H48V84H46zM50,82H52V84H50zM54,82H56V84H54zM58,82H60V84H58zM62,82H64V84H62zM64,82H66V84H64zM66,82H68V84H66zM68,82H70V84H68zM70,82H72V84H70zM72,82H74V84H72zM76,82H78V84H76zM78,82H80V84H78zM82,82H84V84H82zM86,82H88V84H86zM90,82H92V84H90zM92,82H94V84H92zM6,84H8V86H6zM18,84H20V86H18zM24,84H26V86H24zM26,84H28V86H26zM28,84H30V86H28zM32,84H34V86H32zM38,84H40V86H38zM40,84H42V86H40zM44,84H46V86H44zM46,84H48V86H46zM54,84H56V86H54zM60,84H62V86H60zM62,84H64V86H62zM66,84H68V86H66zM68,84H70V86H68zM70,84H72V86H70zM74,84H76V86H74zM78,84H80V86H78zM86,84H88V86H86zM6,86H8V88H6zM10,86H12V88H10zM12,86H14V88H12zM14,86H16V88H14zM18,86H20V88H18zM24,86H26V88H24zM30,86H32V88H30zM34,86H36V88H34zM40,86H42V88H40zM46,86H48V88H46zM48,86H50V88H48zM50,86H52V88H50zM52,86H54V88H52zM54,86H56V88H54zM60,86H62V88H60zM62,86H64V88H62zM66,86H68V88H66zM70,86H72V88H70zM72,86H74V88H72zM74,86H76V88H74zM76,86H78V88H76zM78,86H80V88H78zM80,86H82V88H80zM82,86H84V88H82zM84,86H86V88H84zM86,86H88V88H86zM94,86H96V88H94zM6,88H8V90H6zM10,88H12V90H10zM12,88H14V90H12zM14,88H16V90H14zM18,88H20V90H18zM22,88H24V90H22zM32,88H34V90H32zM38,88H40V90H38zM40,88H42V90H40zM44,88H46V90H44zM52,88H54V90H52zM56,88H58V90H56zM58,88H60V90H58zM64,88H66V90H64zM68,88H70V90H68zM78,88H80V90H78zM80,88H82V90H80zM82,88H84V90H82zM84,88H86V90H84zM86,88H88V90H86zM90,88H92V90H90zM6,90H8V92H6zM10,90H12V92H10zM12,90H14V92H12zM14,90H16V92H14zM18,90H20V92H18zM24,90H26V92H24zM26,90H28V92H26zM28,90H30V92H28zM30,90H32V92H30zM32,90H34V92H32zM36,90H38V92H36zM38,90H40V92H38zM44,90H46V92H44zM50,90H52V92H50zM52,90H54V92H52zM54,90H56V92H54zM62,90H64V92H62zM66,90H68V92H66zM68,90H70V92H68zM70,90H72V92H70zM76,90H78V92H76zM78,90H80V92H78zM80,90H82V92H80zM84,90H86V92H84zM86,90H88V92H86zM88,90H90V92H88zM90,90H92V92H90zM94,90H96V92H94zM6,92H8V94H6zM18,92H20V94H18zM26,92H28V94H26zM28,92H30V94H28zM30,92H32V94H30zM32,92H34V94H32zM34,92H36V94H34zM40,92H42V94H40zM42,92H44V94H42zM48,92H50V94H48zM50,92H52V94H50zM52,92H54V94H52zM54,92H56V94H54zM60,92H62V94H60zM62,92H64V94H62zM76,92H78V94H76zM86,92H88V94H86zM6,94H8V96H6zM8,94H10V96H8zM10,94H12V96H10zM12,94H14V96H12zM14,94H16V96H14zM16,94H18V96H16zM18,94H20V96H18zM24,94H26V96H24zM28,94H30V96H28zM30,94H32V96H30zM32,94H34V96H32zM34,94H36V96H34zM36,94H38V96H36zM42,94H44V96H42zM44,94H46V96H44zM50,94H52V96H50zM52,94H54V96H52zM56,94H58V96H56zM60,94H62V96H60zM66,94H68V96H66zM68,94H70V96H68zM70,94H72V96H70zM78,94H80V96H78zM80,94H82V96H80zM82,94H84V96H82zM84,94H86V96H84zM86,94H88V96H86zM88,94H90V96H88zM92,94H94V96H92z" id="qr-path" fill="#000000" fill-opacity="1" fill-rule="nonzero" stroke="none"/></svg>